<svg width="56" height="56" viewBox="0 0 56 56" fill="none" xmlns="http://www.w3.org/2000/svg">
<g filter="url(#filter0_d)">
<path d="M4 24C4 10.7452 14.7452 0 28 0C41.2548 0 52 10.7452 52 24C52 37.2548 41.2548 48 28 48C14.7452 48 4 37.2548 4 24Z" fill="white"/>
<path d="M41.1596 24.3869H39.8899C39.8502 24.3869 39.8106 24.4266 39.8106 24.4663V28.4937C39.5328 28.573 39.2551 28.6127 38.9376 28.6127C38.1044 28.6127 37.906 28.3548 37.906 27.2438V24.4663C37.906 24.4266 37.8663 24.3869 37.8266 24.3869H36.5569C36.5172 24.3869 36.4775 24.4266 36.4775 24.4663V27.3827C36.4775 29.2079 37.0926 29.9023 38.6599 29.9023C39.5526 29.9023 40.5645 29.6642 41.1596 29.4459C41.1795 29.4261 41.1993 29.4063 41.1993 29.3864V24.4663C41.239 24.4266 41.1993 24.3869 41.1596 24.3869Z" fill="#EF3E58"/>
<path d="M14.2575 24.4067H12.9679C12.9282 24.4067 12.9084 24.4266 12.9084 24.4663C12.71 25.2598 12.2934 26.6089 11.7379 28.0175L10.4483 24.4464C10.4285 24.4266 10.4086 24.4067 10.3888 24.4067H9.0794C9.05956 24.4067 9.03972 24.4266 9.01988 24.4464C9.00005 24.4663 9.00005 24.4861 9.01988 24.5059L10.9641 29.8229C10.7658 30.2395 10.5872 30.5768 10.4086 30.8942C10.2698 31.1323 10.1507 31.3704 10.0317 31.6283C10.0119 31.6481 10.0119 31.668 10.0317 31.6878C10.0515 31.7076 10.0714 31.7275 10.0912 31.7275H11.4998C11.5196 31.7275 11.5593 31.7076 11.5593 31.6878C11.7974 31.2315 12.095 30.5966 12.3727 29.9419C13.206 27.9977 13.8607 26.1724 14.3567 24.5059C14.3567 24.4861 14.3567 24.4663 14.3368 24.4464C14.2972 24.4067 14.2773 24.4067 14.2575 24.4067Z" fill="#EF3E58"/>
<path d="M18.88 28.4937C18.88 28.4738 18.8602 28.454 18.8403 28.454C18.8205 28.454 18.8007 28.454 18.7808 28.454C18.4634 28.573 17.888 28.6524 17.4913 28.6524C16.5985 28.6524 16.1819 28.4143 16.1819 27.0652C16.1819 25.9741 16.3207 25.4781 17.4913 25.4781C17.8285 25.4781 18.1261 25.5178 18.5229 25.6368C18.5626 25.6368 18.5824 25.6368 18.6023 25.5971C18.7411 25.3194 18.9197 24.9821 19.1181 24.5655C19.1181 24.5456 19.1181 24.5258 19.1181 24.506C19.1181 24.4861 19.0983 24.4663 19.0784 24.4663C18.5626 24.3076 17.9476 24.2084 17.3921 24.2084C15.547 24.2084 14.7137 25.0813 14.7137 27.0454C14.7137 29.0293 15.547 29.9221 17.3921 29.9221C17.8484 29.9221 18.7808 29.8229 19.2173 29.6444C19.257 29.6245 19.2768 29.5848 19.257 29.5452L18.88 28.4937Z" fill="#EF3E58"/>
<path d="M30.9622 24.4067H29.6726C29.633 24.4067 29.6131 24.4266 29.6131 24.4663C29.4147 25.2797 28.9981 26.6089 28.4426 28.0175L27.153 24.4464C27.1332 24.4266 27.1134 24.4067 27.0935 24.4067H25.7841C25.7643 24.4067 25.7444 24.4266 25.7246 24.4464C25.7048 24.4663 25.7048 24.4861 25.7246 24.5059L27.6689 29.8229C27.4705 30.2395 27.2919 30.5768 27.1134 30.8942C26.9745 31.1323 26.8554 31.3704 26.7364 31.6283C26.7166 31.6481 26.7166 31.668 26.7364 31.6878C26.7562 31.7076 26.7761 31.7275 26.7959 31.7275H28.2045C28.2244 31.7275 28.264 31.7076 28.264 31.6878C28.5021 31.2315 28.7997 30.5966 29.0775 29.9419C29.8909 27.9977 30.5654 26.1724 31.0614 24.5059C31.0614 24.4861 31.0614 24.4663 31.0416 24.4464C31.0019 24.4067 30.982 24.4067 30.9622 24.4067Z" fill="#EF3E58"/>
<path d="M35.7237 24.3869H31.974C31.9343 24.3869 31.8947 24.4266 31.8947 24.4663V29.684C31.8947 29.7237 31.9343 29.7634 31.974 29.7634H33.2437C33.2834 29.7634 33.3231 29.7237 33.3231 29.684V25.6368H35.2872C35.307 25.6368 35.3467 25.6169 35.3467 25.5971C35.5054 25.24 35.6443 24.863 35.803 24.4861C35.803 24.4663 35.803 24.4464 35.803 24.4266C35.7633 24.4067 35.7435 24.3869 35.7237 24.3869Z" fill="#EF3E58"/>
<path d="M15.7652 16.3717C13.9399 16.3717 13.2257 17.1653 13.2257 19.1691C13.2257 21.2125 13.9399 22.0061 15.7652 22.0061C17.6102 22.0061 18.3244 21.2125 18.3244 19.1691C18.3244 17.1653 17.6102 16.3717 15.7652 16.3717ZM15.7652 20.8554C14.9319 20.8554 14.674 20.6372 14.674 19.2087C14.674 17.7009 14.9517 17.5621 15.7652 17.5621C16.5984 17.5621 16.8762 17.7009 16.8762 19.2087C16.8762 20.6173 16.6182 20.8554 15.7652 20.8554Z" fill="#0F67B1"/>
<path d="M23.4033 20.6372C23.4033 20.6174 23.3835 20.5976 23.3637 20.5976C23.3438 20.5976 23.324 20.5976 23.3041 20.5976C22.9867 20.7166 22.4114 20.796 22.0146 20.796C21.1218 20.796 20.7052 20.5579 20.7052 19.2088C20.7052 18.1176 20.8242 17.6217 22.0146 17.6217C22.3518 17.6217 22.6494 17.6613 23.0462 17.7804C23.0859 17.7804 23.1057 17.7804 23.1256 17.7407C23.2645 17.4629 23.443 17.1257 23.6414 16.709C23.6414 16.6892 23.6414 16.6694 23.6414 16.6495C23.6414 16.6297 23.6216 16.6098 23.6017 16.6098C23.0859 16.4511 22.4709 16.3519 21.9154 16.3519C20.0703 16.3519 19.2371 17.2249 19.2371 19.189C19.2371 21.1729 20.0703 22.0657 21.9154 22.0657C22.3717 22.0657 23.3041 21.9665 23.7406 21.7879C23.7803 21.7681 23.8001 21.7284 23.7803 21.6887L23.4033 20.6372Z" fill="#0F67B1"/>
<path d="M9.07936 16.5305C9.03968 16.5305 9 16.5701 9 16.6098V21.8276C9 21.8673 9.03968 21.9069 9.07936 21.9069H10.3491C10.3888 21.9069 10.4284 21.8673 10.4284 21.8276V17.7803H12.3925C12.4124 17.7803 12.4521 17.7605 12.4521 17.7407C12.6108 17.3836 12.7496 17.0066 12.9084 16.6297C12.9084 16.6098 12.9084 16.59 12.9084 16.5701C12.8885 16.5503 12.8687 16.5305 12.8488 16.5305H9.07936V16.5305Z" fill="#0F67B1"/>
<path fill-rule="evenodd" clip-rule="evenodd" d="M47.0916 29.2078C47.0916 29.188 47.0916 29.1483 47.0916 29.1285C47.0916 29.0888 47.0916 29.0293 47.1114 28.9896C47.171 28.2555 47.2106 27.3628 47.2503 26.3311C47.2503 26.3113 47.2503 26.2716 47.2503 26.2518C47.2702 25.5574 47.29 24.8035 47.29 24.0298C47.29 23.256 47.2702 22.5021 47.2503 21.8077C47.2503 21.7879 47.2503 21.7482 47.2503 21.7284C47.2106 20.7166 47.171 19.804 47.1114 19.0699C47.1114 19.0302 47.1114 18.9707 47.0916 18.931C47.0916 18.9112 47.0916 18.8715 47.0916 18.8517C47.0916 18.7723 47.0718 18.7128 47.0718 18.6334C47.0718 18.5938 47.0718 18.5739 47.0718 18.5541C47.0122 17.7803 46.9726 17.3042 46.9527 17.2645C46.9527 17.1852 46.9329 17.1058 46.9329 17.0463C46.9329 17.0265 46.9329 17.0066 46.9329 16.9868C46.913 16.8479 46.8932 16.7289 46.8535 16.59C46.8535 16.5701 46.8535 16.5503 46.8337 16.5305C46.4964 14.9235 45.6036 13.1578 44.4926 11.8285C44.0562 11.3127 43.5999 10.8564 43.1237 10.4993C43.084 10.4596 42.5285 10.0628 41.6556 9.4478C40.6438 8.75342 39.1955 7.78129 37.5489 6.829C34.6325 5.10298 32.0137 3.91261 31.6764 3.7539C31.6566 3.7539 31.6566 3.73406 31.6566 3.73406C30.8828 3.39679 29.9504 3.15872 28.9386 3.05952C28.7402 3.03968 28.5418 3.01984 28.3434 3.01984C28.1648 3.01984 27.9863 3 27.8077 3C27.7085 3 27.6292 3 27.53 3C26.161 3.01984 24.9112 3.27775 23.9192 3.73406C23.7605 3.79358 21.1218 5.00378 18.1261 6.74965C18.0864 6.76948 18.0467 6.78932 18.007 6.80916C14.9518 8.63439 12.5314 10.4199 12.4322 10.4993C11.6783 11.0548 11.0037 11.769 10.3887 12.6816C10.2498 12.8999 10.2498 13.4157 10.845 13.4157H12.3727C13.0274 13.4157 13.1861 13.0189 13.9201 12.4832C14.7335 11.888 16.3405 10.6977 19.2768 8.95182C21.3996 7.70194 23.3835 6.72981 24.3358 6.2735C24.3557 6.2735 24.3755 6.25366 24.3953 6.25366C24.3953 6.25366 24.4152 6.25366 24.4152 6.23382C24.4152 6.23382 24.435 6.23382 24.435 6.21398C24.4549 6.21398 24.4747 6.19414 24.4747 6.19414C24.4945 6.19414 24.5144 6.1743 24.5342 6.1743C24.7723 6.05527 24.931 5.99575 24.931 5.99575C25.6055 5.69816 26.5578 5.49976 27.5696 5.47992C27.6292 5.47992 27.7085 5.47992 27.768 5.47992C27.8275 5.47992 27.9069 5.47992 27.9664 5.47992C28.264 5.47992 28.5616 5.49976 28.8394 5.53944C29.4544 5.6188 30.0099 5.73784 30.4662 5.93623C30.5059 5.95607 30.5654 5.97591 30.6051 5.99575C30.6051 5.99575 30.6249 6.01559 30.6844 6.03543C31.1407 6.23382 33.6008 7.40435 36.2791 8.97166C37.8663 9.90411 39.2749 10.8366 40.247 11.5111C41.1001 12.1063 41.6159 12.4832 41.6358 12.5031C42.0127 12.7808 42.3897 13.1776 42.7468 13.6141C43.6395 14.7648 44.3736 16.3321 44.4926 17.5423C44.4926 17.5621 44.5522 18.0383 44.6117 18.8517C44.6117 18.9112 44.6117 18.9509 44.6315 19.0104C44.6315 19.0501 44.6315 19.0897 44.6315 19.1294C44.6315 19.2088 44.6514 19.2683 44.6514 19.3477C44.6514 19.3675 44.6514 19.4072 44.6514 19.427C44.6514 19.4667 44.6514 19.5262 44.6712 19.5659C44.6712 19.6651 44.691 19.7643 44.691 19.8635C44.691 19.923 44.691 19.9825 44.7109 20.042C44.7109 20.0619 44.7109 20.0817 44.7109 20.0817C44.7109 20.1611 44.7109 20.2206 44.7307 20.3C44.7307 20.3595 44.7307 20.3991 44.7307 20.4587C44.7902 21.4903 44.8299 22.7204 44.8299 24.0099C44.8299 25.2995 44.7902 26.5295 44.7307 27.5612C44.7307 27.6207 44.7307 27.6604 44.7307 27.7199C44.7307 27.7992 44.7307 27.8588 44.7109 27.9381C44.7109 27.958 44.7109 27.9778 44.7109 27.9778C44.7109 28.0373 44.7109 28.0968 44.691 28.1564C44.691 28.2555 44.6712 28.3547 44.6712 28.4539C44.6712 28.5135 44.6712 28.5531 44.6514 28.5928C44.6514 28.6127 44.6514 28.6523 44.6514 28.6722C44.6514 28.7515 44.6315 28.8111 44.6315 28.8904C44.6315 28.9301 44.6315 28.9698 44.6315 29.0094C44.6315 29.069 44.6315 29.1285 44.6117 29.1682C44.5522 29.9816 44.4926 30.4776 44.4926 30.4776C44.3736 31.6878 43.6395 33.2551 42.7468 34.4058C42.3897 34.8621 42.0127 35.239 41.6358 35.5168C41.6159 35.5168 41.1001 35.9136 40.247 36.5087C39.2749 37.1833 37.8464 38.1157 36.2791 39.0482C33.6008 40.6353 31.1209 41.786 30.6844 41.9844C30.6447 42.0042 30.6051 42.0241 30.6051 42.0241C30.5654 42.0439 30.5059 42.0638 30.4662 42.0836C30.0099 42.2622 29.4544 42.401 28.8394 42.4804C28.5616 42.5201 28.264 42.5399 27.9664 42.5399C27.9069 42.5399 27.8275 42.5399 27.768 42.5399C27.7085 42.5399 27.6292 42.5399 27.5696 42.5399C26.5578 42.5201 25.6055 42.3415 24.931 42.0241C24.931 42.0241 24.7921 41.9646 24.5342 41.8455C24.5144 41.8257 24.4747 41.8257 24.4549 41.8059C24.435 41.786 24.4152 41.786 24.3953 41.7662C24.3755 41.7662 24.3755 41.7463 24.3557 41.7463C24.3358 41.7463 24.316 41.7265 24.2961 41.7265C24.2763 41.7067 24.2565 41.7067 24.2168 41.6868H24.1969C23.1851 41.2107 21.2806 40.2584 19.2569 39.068C16.3009 37.342 14.7137 36.1318 13.9003 35.5366C13.1662 35.0009 13.0075 34.6042 12.3528 34.6042H10.845C10.2498 34.6042 10.2498 35.12 10.3887 35.3184C11.0037 36.231 11.6783 36.9452 12.4322 37.5007C12.5314 37.5801 14.9518 39.3656 18.007 41.171C18.1658 41.2702 18.3245 41.3694 18.503 41.4487C21.3401 43.0756 23.7803 44.1866 23.9192 44.2659C24.8913 44.7024 26.161 44.9603 27.5101 45C27.5895 45 27.6887 45 27.7879 45C27.9664 45 28.145 45 28.3235 44.9802C28.5219 44.9802 28.7203 44.9603 28.9187 44.9405C29.9305 44.8413 30.8828 44.6032 31.6367 44.2659C31.6367 44.2659 31.6566 44.2659 31.6566 44.2461C31.9938 44.0874 34.6126 42.8772 37.529 41.171C39.1757 40.1989 40.624 39.2466 41.6358 38.5522C42.5087 37.9372 43.0642 37.5404 43.1039 37.5007C43.58 37.1436 44.0363 36.6873 44.4728 36.1715C45.5838 34.8422 46.4766 33.0765 46.8138 31.4695C46.8138 31.4497 46.8138 31.4299 46.8337 31.41C46.8535 31.2711 46.8932 31.1323 46.913 31.0132C46.913 30.9934 46.913 30.9735 46.913 30.9537C46.9329 30.8744 46.9329 30.795 46.9329 30.7355C46.9329 30.6958 46.9924 30.2196 47.0519 29.4459C47.0519 29.4261 47.0519 29.3864 47.0519 29.3666C47.0916 29.3467 47.0916 29.2674 47.0916 29.2078Z" fill="url(#paint0_linear)"/>
<path d="M24.7128 24.3869H20.8242C20.7846 24.3869 20.7647 24.4067 20.7449 24.4464C20.6457 26.2121 20.3084 28.0969 19.8323 29.6443C19.8323 29.6642 19.8323 29.684 19.8521 29.7039C19.872 29.7237 19.8918 29.7237 19.9116 29.7237H21.2409C21.2806 29.7237 21.3004 29.7039 21.3004 29.684C21.6773 28.4937 21.9749 26.9462 22.094 25.6368H23.3637V29.6642C23.3637 29.7039 23.4034 29.7435 23.443 29.7435H24.7128C24.7524 29.7435 24.7921 29.7039 24.7921 29.6642V24.4464C24.7921 24.4266 24.7524 24.3869 24.7128 24.3869Z" fill="#EF3E58"/>
</g>
<defs>
<filter id="filter0_d" x="0" y="0" width="56" height="56" filterUnits="userSpaceOnUse" color-interpolation-filters="sRGB">
<feFlood flood-opacity="0" result="BackgroundImageFix"/>
<feColorMatrix in="SourceAlpha" type="matrix" values="0 0 0 0 0 0 0 0 0 0 0 0 0 0 0 0 0 0 127 0"/>
<feOffset dy="4"/>
<feGaussianBlur stdDeviation="2"/>
<feColorMatrix type="matrix" values="0 0 0 0 0 0 0 0 0 0 0 0 0 0 0 0 0 0 0.25 0"/>
<feBlend mode="normal" in2="BackgroundImageFix" result="effect1_dropShadow"/>
<feBlend mode="normal" in="SourceGraphic" in2="effect1_dropShadow" result="shape"/>
</filter>
<linearGradient id="paint0_linear" x1="28.803" y1="2.99524" x2="28.803" y2="45.0712" gradientUnits="userSpaceOnUse">
<stop offset="0.3979" stop-color="#1466AC"/>
<stop offset="0.6586" stop-color="#EF4058"/>
</linearGradient>
</defs>
</svg>
