<svg width="56" height="56" viewBox="0 0 56 56" fill="none" xmlns="http://www.w3.org/2000/svg">
<g filter="url(#filter0_d)">
<path d="M4 24C4 10.7452 14.7452 0 28 0C41.2548 0 52 10.7452 52 24C52 37.2548 41.2548 48 28 48C14.7452 48 4 37.2548 4 24Z" fill="#F68634"/>
<path d="M30.596 29.4403L34.1827 32.9028C34.9174 33.6106 34.9174 34.7601 34.1827 35.4686C33.4487 36.1771 32.259 36.1771 31.5258 35.4686L27.9994 32.0661L24.4761 35.4686C24.1087 35.8225 23.6273 35.9996 23.1459 35.9996C22.6653 35.9996 22.1846 35.8225 21.8173 35.4686C21.0833 34.7601 21.0833 33.6113 21.8165 32.9028L25.4035 29.4403C24.0976 29.1531 22.838 28.6536 21.6779 27.951C20.8 27.4167 20.5362 26.2972 21.0894 25.449C21.6411 24.5996 22.8012 24.3439 23.6806 24.8783C26.3072 26.4732 29.6908 26.4736 32.3189 24.8783C33.1984 24.3439 34.3581 24.5996 34.9109 25.449C35.4641 26.2964 35.1996 27.4167 34.3216 27.951C33.1615 28.6543 31.902 29.1531 30.596 29.4403Z" fill="white"/>
<path fill-rule="evenodd" clip-rule="evenodd" d="M21.5677 18.1936C21.5677 21.6079 24.4454 24.3853 27.9837 24.3853C31.5227 24.3853 34.3996 21.6079 34.3996 18.1936C34.3996 14.7781 31.5227 12 27.9837 12C24.4454 12 21.5677 14.7781 21.5677 18.1936ZM30.6402 18.1936C30.6402 16.7795 29.4486 15.6297 27.9837 15.6297C26.5199 15.6297 25.3272 16.7795 25.3272 18.1936C25.3272 19.6065 26.5199 20.7571 27.9837 20.7571C29.4486 20.7571 30.6402 19.6065 30.6402 18.1936Z" fill="white"/>
</g>
<defs>
<filter id="filter0_d" x="0" y="0" width="56" height="56" filterUnits="userSpaceOnUse" color-interpolation-filters="sRGB">
<feFlood flood-opacity="0" result="BackgroundImageFix"/>
<feColorMatrix in="SourceAlpha" type="matrix" values="0 0 0 0 0 0 0 0 0 0 0 0 0 0 0 0 0 0 127 0"/>
<feOffset dy="4"/>
<feGaussianBlur stdDeviation="2"/>
<feColorMatrix type="matrix" values="0 0 0 0 0 0 0 0 0 0 0 0 0 0 0 0 0 0 0.25 0"/>
<feBlend mode="normal" in2="BackgroundImageFix" result="effect1_dropShadow"/>
<feBlend mode="normal" in="SourceGraphic" in2="effect1_dropShadow" result="shape"/>
</filter>
</defs>
</svg>
