<svg width="56" height="56" viewBox="0 0 56 56" fill="none" xmlns="http://www.w3.org/2000/svg">
<g filter="url(#filter0_d)">
<path d="M4 24C4 10.7452 14.7452 0 28 0C41.2548 0 52 10.7452 52 24C52 37.2548 41.2548 48 28 48C14.7452 48 4 37.2548 4 24Z" fill="#4680C2"/>
</g>
<path fill-rule="evenodd" clip-rule="evenodd" d="M43.2322 15.3211C43.4693 14.5759 43.2322 14.0339 42.1821 14.0339H38.693C37.8123 14.0339 37.4058 14.5081 37.1687 15.0162C37.1687 15.0162 35.3733 19.3521 32.8666 22.1637C32.0536 22.9767 31.681 23.2477 31.2406 23.2477C31.0035 23.2477 30.6987 22.9767 30.6987 22.2315V15.2872C30.6987 14.4065 30.4277 14 29.6824 14H24.1948C23.6528 14 23.314 14.4065 23.314 14.813C23.314 15.6598 24.5674 15.8631 24.7029 18.2343V23.3832C24.7029 24.5011 24.4996 24.7043 24.0593 24.7043C22.8737 24.7043 19.9944 20.3345 18.2668 15.355C17.928 14.3726 17.5893 14 16.7085 14H13.1856C12.1694 14 12 14.4742 12 14.9824C12 15.897 13.1856 20.5039 17.5215 26.6013C20.4008 30.7678 24.4996 33.0035 28.192 33.0035C30.4277 33.0035 30.6987 32.4954 30.6987 31.6485V28.4982C30.6987 27.482 30.9019 27.3126 31.6133 27.3126C32.1214 27.3126 33.036 27.5836 35.1023 29.5822C37.4735 31.9534 37.88 33.0374 39.2011 33.0374H42.6902C43.7064 33.0374 44.1807 32.5293 43.9097 31.5469C43.6048 30.5646 42.4531 29.1418 40.9626 27.4481C40.1496 26.4996 38.9301 25.4495 38.5575 24.9414C38.0494 24.2639 38.1849 23.9929 38.5575 23.3832C38.5236 23.3832 42.7918 17.3536 43.2322 15.3211Z" fill="white"/>
<defs>
<filter id="filter0_d" x="0" y="0" width="56" height="56" filterUnits="userSpaceOnUse" color-interpolation-filters="sRGB">
<feFlood flood-opacity="0" result="BackgroundImageFix"/>
<feColorMatrix in="SourceAlpha" type="matrix" values="0 0 0 0 0 0 0 0 0 0 0 0 0 0 0 0 0 0 127 0"/>
<feOffset dy="4"/>
<feGaussianBlur stdDeviation="2"/>
<feColorMatrix type="matrix" values="0 0 0 0 0 0 0 0 0 0 0 0 0 0 0 0 0 0 0.25 0"/>
<feBlend mode="normal" in2="BackgroundImageFix" result="effect1_dropShadow"/>
<feBlend mode="normal" in="SourceGraphic" in2="effect1_dropShadow" result="shape"/>
</filter>
</defs>
</svg>
